<?xml version="1.0" encoding="UTF-8"?>
<svg xmlns="http://www.w3.org/2000/svg" viewBox="0 0 1500 1100" width="1500" height="1100">
  <style>
    text { font-family: "Helvetica Neue", Helvetica, Arial, "PingFang SC", "Microsoft YaHei", "SimHei", sans-serif; }
  </style>
  <defs>
    <marker id="ab" markerWidth="10" markerHeight="7" refX="9" refY="3.5" orient="auto">
      <polygon points="0 0,10 3.5,0 7" fill="#2563eb"/>
    </marker>
    <marker id="ao" markerWidth="10" markerHeight="7" refX="9" refY="3.5" orient="auto">
      <polygon points="0 0,10 3.5,0 7" fill="#ea580c"/>
    </marker>
    <marker id="ag" markerWidth="10" markerHeight="7" refX="9" refY="3.5" orient="auto">
      <polygon points="0 0,10 3.5,0 7" fill="#16a34a"/>
    </marker>
    <marker id="ap" markerWidth="10" markerHeight="7" refX="9" refY="3.5" orient="auto">
      <polygon points="0 0,10 3.5,0 7" fill="#9333ea"/>
    </marker>
    <marker id="ay" markerWidth="10" markerHeight="7" refX="9" refY="3.5" orient="auto">
      <polygon points="0 0,10 3.5,0 7" fill="#ca8a04"/>
    </marker>
    <marker id="agray" markerWidth="10" markerHeight="7" refX="9" refY="3.5" orient="auto">
      <polygon points="0 0,10 3.5,0 7" fill="#6b7280"/>
    </marker>
    <marker id="ab-r" markerWidth="10" markerHeight="7" refX="1" refY="3.5" orient="auto">
      <polygon points="10 0,0 3.5,10 7" fill="#2563eb"/>
    </marker>
    <filter id="sh" x="-2%" y="-4%" width="104%" height="112%">
      <feDropShadow dx="0" dy="1" stdDeviation="2" flood-opacity="0.08"/>
    </filter>
    <linearGradient id="dbGrad" x1="0" y1="0" x2="0" y2="1">
      <stop offset="0%" stop-color="#f0fdf4"/>
      <stop offset="100%" stop-color="#dcfce7"/>
    </linearGradient>
  </defs>
  <rect width="1500" height="1100" fill="#ffffff"/>
  <text x="750" y="32" text-anchor="middle" fill="#111827" font-size="20" font-weight="600">lingxicli 端云控制与日志审计架构</text>
  <text x="750" y="52" text-anchor="middle" fill="#6b7280" font-size="11">Enterprise Cloud Control &amp; Audit Architecture</text>
  <!-- Web Admin -->
  <rect x="40" y="70" width="280" height="120" rx="10" fill="#eff6ff" stroke="#3b82f6" stroke-width="1.5" stroke-dasharray="6,3"/>
  <text x="60" y="90" fill="#1e40af" font-size="12" font-weight="600">Web 管理端</text>
  <rect x="55" y="100" width="250" height="75" rx="6" fill="#ffffff" stroke="#93c5fd" stroke-width="1" filter="url(#sh)"/>
  <text x="180" y="120" text-anchor="middle" fill="#374151" font-size="10" font-weight="500">管理员下发任务</text>
  <text x="180" y="135" text-anchor="middle" fill="#6b7280" font-size="9">CLI / Skills / MCP / Rule</text>
  <text x="180" y="148" text-anchor="middle" fill="#6b7280" font-size="9">AI HUB / GitLab 配置</text>
  <text x="180" y="161" text-anchor="middle" fill="#6b7280" font-size="9">→ 形成版本化目标态</text>
  <!-- External Systems -->
  <rect x="1080" y="70" width="370" height="200" rx="10" fill="#f9fafb" stroke="#d1d5db" stroke-width="1.5" stroke-dasharray="6,3"/>
  <text x="1100" y="90" fill="#374151" font-size="12" font-weight="600">外部系统</text>
  <rect x="1110" y="102" width="160" height="65" rx="6" fill="#ffffff" stroke="#3b82f6" stroke-width="1.2" filter="url(#sh)"/>
  <rect x="1110" y="102" width="160" height="20" rx="6" fill="#3b82f6" opacity="0.15"/>
  <text x="1190" y="134" text-anchor="middle" fill="#374151" font-size="10" font-weight="500">SSO / LDAP</text>
  <rect x="1290" y="102" width="150" height="65" rx="6" fill="#ffffff" stroke="#ea580c" stroke-width="1.2" filter="url(#sh)"/>
  <rect x="1290" y="102" width="150" height="20" rx="6" fill="#ea580c" opacity="0.15"/>
  <text x="1365" y="134" text-anchor="middle" fill="#374151" font-size="10" font-weight="500">GitLab</text>
  <rect x="1110" y="182" width="160" height="65" rx="6" fill="#ffffff" stroke="#9333ea" stroke-width="1.2" filter="url(#sh)"/>
  <rect x="1110" y="182" width="160" height="20" rx="6" fill="#9333ea" opacity="0.15"/>
  <text x="1190" y="214" text-anchor="middle" fill="#374151" font-size="10" font-weight="500">AI HUB</text>
  <rect x="1290" y="182" width="150" height="75" rx="6" fill="#ffffff" stroke="#ca8a04" stroke-width="1.2" filter="url(#sh)"/>
  <rect x="1290" y="182" width="150" height="20" rx="6" fill="#ca8a04" opacity="0.15"/>
  <text x="1365" y="214" text-anchor="middle" fill="#374151" font-size="10" font-weight="500">飞书审批
/客户审批中心</text>
  <!-- Endpoint Side -->
  <rect x="40" y="310" width="310" height="380" rx="10" fill="#f0fdf4" stroke="#86efac" stroke-width="1.5" stroke-dasharray="6,3"/>
  <text x="60" y="330" fill="#15803d" font-size="12" font-weight="600">端侧（2000+ 用户云目录）</text>
  <rect x="55" y="345" width="280" height="330" rx="8" fill="#ffffff" stroke="#86efac" stroke-width="1" opacity="0.3"/>
  <rect x="59" y="349" width="280" height="330" rx="8" fill="#ffffff" stroke="#86efac" stroke-width="1" opacity="0.6499999999999999"/>
  <rect x="63" y="353" width="280" height="330" rx="8" fill="#ffffff" stroke="#86efac" stroke-width="1" opacity="1.0"/>
  <rect x="65" y="355" width="260" height="310" rx="8" fill="#ffffff" stroke="#16a34a" stroke-width="2" filter="url(#sh)"/>
  <rect x="65" y="355" width="260" height="28" rx="8" fill="#16a34a"/>
  <rect x="65" y="375" width="260" height="8" fill="#16a34a"/>
  <text x="195" y="374" text-anchor="middle" fill="#ffffff" font-size="12" font-weight="600">lingxicli</text>
  <rect x="78" y="395" width="115" height="48" rx="5" fill="#ffffff" stroke="#2563eb" stroke-width="1.2"/>
  <text x="135" y="415" text-anchor="middle" fill="#374151" font-size="10" font-weight="500">Qoder CLI</text>
  <circle cx="88" cy="405" r="3" fill="#2563eb"/>
  <rect x="198" y="395" width="115" height="48" rx="5" fill="#ffffff" stroke="#7c3aed" stroke-width="1.2"/>
  <text x="255" y="415" text-anchor="middle" fill="#374151" font-size="10" font-weight="500">Claude Code</text>
  <circle cx="208" cy="405" r="3" fill="#7c3aed"/>
  <rect x="78" y="455" width="115" height="48" rx="5" fill="#ffffff" stroke="#0891b2" stroke-width="1.2"/>
  <text x="135" y="475" text-anchor="middle" fill="#374151" font-size="10" font-weight="500">lingxiupdater</text>
  <circle cx="88" cy="465" r="3" fill="#0891b2"/>
  <rect x="198" y="455" width="115" height="48" rx="5" fill="#ffffff" stroke="#dc2626" stroke-width="1.2"/>
  <text x="255" y="475" text-anchor="middle" fill="#374151" font-size="10" font-weight="500">lingxidoctor</text>
  <circle cx="208" cy="465" r="3" fill="#dc2626"/>
  <text x="195" y="525" text-anchor="middle" fill="#6b7280" font-size="9">启动 / 心跳</text>
  <text x="195" y="540" text-anchor="middle" fill="#6b7280" font-size="9">拉取目标态 diff</text>
  <text x="195" y="555" text-anchor="middle" fill="#6b7280" font-size="9">上报 ack + 日志</text>
  <text x="195" y="580" text-anchor="middle" fill="#9ca3af" font-size="9">大文件下载 → Artifact Gateway</text>
  <text x="195" y="595" text-anchor="middle" fill="#9ca3af" font-size="9">Token 申请 → Credential Ticket</text>
  <text x="195" y="610" text-anchor="middle" fill="#9ca3af" font-size="9">hash 校验后执行</text>
  <!-- Network Layer -->
  <rect x="380" y="310" width="100" height="380" rx="8" fill="#f3f4f6" stroke="#9ca3af" stroke-width="1.5" stroke-dasharray="4,2"/>
  <text x="430" y="330" text-anchor="middle" fill="#4b5563" font-size="11" font-weight="600">企业内网</text>
  <rect x="395" y="360" width="70" height="280" rx="6" fill="#ffffff" stroke="#6b7280" stroke-width="1.5" filter="url(#sh)"/>
  <text x="430" y="385" text-anchor="middle" fill="#374151" font-size="10" font-weight="600">LB /</text>
  <text x="430" y="400" text-anchor="middle" fill="#374151" font-size="10" font-weight="600">Ingress</text>
  <polygon points="430,436 435,444 425,444" fill="#9ca3af"/>
  <polygon points="430,476 435,484 425,484" fill="#9ca3af"/>
  <polygon points="430,516 435,524 425,524" fill="#9ca3af"/>
  <polygon points="430,556 435,564 425,564" fill="#9ca3af"/>
  <text x="430" y="610" text-anchor="middle" fill="#9ca3af" font-size="9">路由分发</text>
  <text x="430" y="625" text-anchor="middle" fill="#9ca3af" font-size="9">TLS 终止</text>
  <!-- Go Backend -->
  <rect x="510" y="310" width="530" height="380" rx="10" fill="#fffbeb" stroke="#f59e0b" stroke-width="1.5" stroke-dasharray="6,3"/>
  <text x="530" y="330" fill="#92400e" font-size="12" font-weight="600">Go 后端服务</text>
  <rect x="525" y="350" width="155" height="65" rx="6" fill="#ffffff" stroke="#b45309" stroke-width="1.5" filter="url(#sh)"/>
  <rect x="525" y="350" width="155" height="18" rx="6" fill="#b45309" opacity="0.12"/>
  <text x="602" y="364" text-anchor="middle" fill="#b45309" font-size="11" font-weight="600">Admin API</text>
  <text x="602" y="382" text-anchor="middle" fill="#6b7280" font-size="9">任务下发
目标态管理</text>
  <rect x="695" y="350" width="155" height="65" rx="6" fill="#ffffff" stroke="#2563eb" stroke-width="1.5" filter="url(#sh)"/>
  <rect x="695" y="350" width="155" height="18" rx="6" fill="#2563eb" opacity="0.12"/>
  <text x="772" y="364" text-anchor="middle" fill="#2563eb" font-size="11" font-weight="600">Control API</text>
  <text x="772" y="382" text-anchor="middle" fill="#6b7280" font-size="9">目标态 diff
snapshot 分发</text>
  <rect x="865" y="350" width="155" height="65" rx="6" fill="#ffffff" stroke="#15803d" stroke-width="1.5" filter="url(#sh)"/>
  <rect x="865" y="350" width="155" height="18" rx="6" fill="#15803d" opacity="0.12"/>
  <text x="942" y="364" text-anchor="middle" fill="#15803d" font-size="11" font-weight="600">Log Ingest API</text>
  <text x="942" y="382" text-anchor="middle" fill="#6b7280" font-size="9">日志分片接收
结构化解析</text>
  <rect x="525" y="430" width="235" height="65" rx="6" fill="#ffffff" stroke="#ea580c" stroke-width="1.5" filter="url(#sh)"/>
  <rect x="525" y="430" width="235" height="18" rx="6" fill="#ea580c" opacity="0.12"/>
  <text x="642" y="444" text-anchor="middle" fill="#ea580c" font-size="11" font-weight="600">Artifact Gateway</text>
  <text x="642" y="462" text-anchor="middle" fill="#6b7280" font-size="9">短期 ticket 签发
大文件重定向下载</text>
  <rect x="775" y="430" width="245" height="65" rx="6" fill="#ffffff" stroke="#7c3aed" stroke-width="1.5" filter="url(#sh)"/>
  <rect x="775" y="430" width="245" height="18" rx="6" fill="#7c3aed" opacity="0.12"/>
  <text x="897" y="444" text-anchor="middle" fill="#7c3aed" font-size="11" font-weight="600">Credential Ticket API</text>
  <text x="897" y="462" text-anchor="middle" fill="#6b7280" font-size="9">AI HUB / GitLab
短期 token 签发</text>
  <rect x="525" y="510" width="235" height="65" rx="6" fill="#ffffff" stroke="#a855f7" stroke-width="1.5" filter="url(#sh)"/>
  <rect x="525" y="510" width="235" height="18" rx="6" fill="#a855f7" opacity="0.12"/>
  <text x="642" y="524" text-anchor="middle" fill="#a855f7" font-size="11" font-weight="600">Approval Integration</text>
  <text x="642" y="542" text-anchor="middle" fill="#6b7280" font-size="9">飞书 / 客户审批
回调处理</text>
  <rect x="775" y="510" width="245" height="65" rx="6" fill="#ffffff" stroke="#0ea5e9" stroke-width="1.5" filter="url(#sh)"/>
  <rect x="775" y="510" width="245" height="18" rx="6" fill="#0ea5e9" opacity="0.12"/>
  <text x="897" y="524" text-anchor="middle" fill="#0ea5e9" font-size="11" font-weight="600">Worker</text>
  <text x="897" y="542" text-anchor="middle" fill="#6b7280" font-size="9">异步任务执行
状态同步</text>
  <!-- Data Storage -->
  <rect x="1080" y="310" width="370" height="380" rx="10" fill="#f0f9ff" stroke="#0ea5e9" stroke-width="1.5" stroke-dasharray="6,3"/>
  <text x="1100" y="330" fill="#0369a1" font-size="12" font-weight="600">数据存储</text>
  <path d="M 1100,358 L 1100,407 A 80,8 0 0,0 1260,407 L 1260,358" fill="#ffffff" stroke="#0ea5e9" stroke-width="1.5"/>
  <ellipse cx="1180" cy="358" rx="80" ry="8" fill="#0ea5e9" opacity="0.1" stroke="#0ea5e9" stroke-width="1.5"/>
  <text x="1180" y="378" text-anchor="middle" fill="#374151" font-size="11" font-weight="600">PostgreSQL</text>
  <text x="1180" y="394" text-anchor="middle" fill="#6b7280" font-size="9">版本化目标态 / 配置</text>
  <path d="M 1280,358 L 1280,407 A 80,8 0 0,0 1440,407 L 1440,358" fill="#ffffff" stroke="#dc2626" stroke-width="1.5"/>
  <ellipse cx="1360" cy="358" rx="80" ry="8" fill="#dc2626" opacity="0.1" stroke="#dc2626" stroke-width="1.5"/>
  <text x="1360" y="378" text-anchor="middle" fill="#374151" font-size="11" font-weight="600">Redis</text>
  <text x="1360" y="394" text-anchor="middle" fill="#6b7280" font-size="9">缓存 / Session / 锁</text>
  <path d="M 1100,443 L 1100,492 A 170,8 0 0,0 1440,492 L 1440,443" fill="#ffffff" stroke="#ea580c" stroke-width="1.5"/>
  <ellipse cx="1270" cy="443" rx="170" ry="8" fill="#ea580c" opacity="0.1" stroke="#ea580c" stroke-width="1.5"/>
  <text x="1270" y="463" text-anchor="middle" fill="#374151" font-size="11" font-weight="600">对象存储 / 企业制品库</text>
  <text x="1270" y="479" text-anchor="middle" fill="#6b7280" font-size="9">CLI 包 / Skill ZIP / MCP artifact</text>
  <path d="M 1100,528 L 1100,577 A 170,8 0 0,0 1440,577 L 1440,528" fill="#ffffff" stroke="#15803d" stroke-width="1.5"/>
  <ellipse cx="1270" cy="528" rx="170" ry="8" fill="#15803d" opacity="0.1" stroke="#15803d" stroke-width="1.5"/>
  <text x="1270" y="548" text-anchor="middle" fill="#374151" font-size="11" font-weight="600">结构化日志 / 审计存储</text>
  <text x="1270" y="564" text-anchor="middle" fill="#6b7280" font-size="9">合规审计 / 操作追溯</text>
  <line x1="320" y1="130" x2="520" y2="375" stroke="#ea580c" stroke-width="1.5" marker-end="url(#ao)"/>
  <rect x="380" y="140" width="70" height="16" rx="3" fill="#ffffff" opacity="0.9"/>
  <text x="415" y="152" text-anchor="middle" fill="#92400e" font-size="8">下发任务</text>
  <line x1="680" y1="415" x2="1180" y2="415" stroke="#16a34a" stroke-width="1.5" marker-end="url(#ag)"/>
  <rect x="860" y="405" width="100" height="14" rx="3" fill="#ffffff" opacity="0.9"/>
  <text x="910" y="416" text-anchor="middle" fill="#15803d" font-size="8">写入目标态</text>
  <line x1="600" y1="415" x2="640" y2="510" stroke="#9333ea" stroke-width="1.2" stroke-dasharray="4,2" marker-end="url(#ap)"/>
  <rect x="585" y="450" width="70" height="14" rx="3" fill="#ffffff" opacity="0.9"/>
  <text x="620" y="461" text-anchor="middle" fill="#9333ea" font-size="8">需审批</text>
  <path d="M 760 540 Q 950 540 1280 245" fill="none" stroke="#9333ea" stroke-width="1.2" stroke-dasharray="4,2" marker-end="url(#ap)"/>
  <rect x="980" y="350" width="70" height="14" rx="3" fill="#ffffff" opacity="0.9"/>
  <text x="1015" y="361" text-anchor="middle" fill="#9333ea" font-size="8">发起审批</text>
  <path d="M 1290 257 Q 960 257 770 550" fill="none" stroke="#9333ea" stroke-width="1.2" stroke-dasharray="4,2" marker-end="url(#ap)"/>
  <rect x="980" y="380" width="70" height="14" rx="3" fill="#ffffff" opacity="0.9"/>
  <text x="1015" y="391" text-anchor="middle" fill="#9333ea" font-size="8">审批回调</text>
  <line x1="760" y1="540" x2="1180" y2="382" stroke="#16a34a" stroke-width="1.2" stroke-dasharray="4,2" marker-end="url(#ag)"/>
  <rect x="920" y="440" width="90" height="14" rx="3" fill="#ffffff" opacity="0.9"/>
  <text x="965" y="451" text-anchor="middle" fill="#15803d" font-size="8">审批通过后写入</text>
  <line x1="325" y1="500" x2="395" y2="500" stroke="#2563eb" stroke-width="1.8" marker-end="url(#ab)"/>
  <line x1="465" y1="500" x2="695" y2="382" stroke="#2563eb" stroke-width="1.8" marker-end="url(#ab)"/>
  <rect x="340" y="485" width="80" height="14" rx="3" fill="#ffffff" opacity="0.9"/>
  <text x="380" y="496" text-anchor="middle" fill="#2563eb" font-size="8">心跳 / 拉取</text>
  <line x1="850" y1="382" x2="1280" y2="382" stroke="#16a34a" stroke-width="1.2" marker-end="url(#ag)"/>
  <rect x="1030" y="372" width="70" height="14" rx="3" fill="#ffffff" opacity="0.9"/>
  <text x="1065" y="383" text-anchor="middle" fill="#15803d" font-size="8">缓存</text>
  <line x1="772" y1="415" x2="1100" y2="382" stroke="#16a34a" stroke-width="1.2" marker-end="url(#ag)"/>
  <line x1="897" y1="540" x2="1180" y2="415" stroke="#16a34a" stroke-width="1.2" marker-end="url(#ag)"/>
  <line x1="897" y1="575" x2="1280" y2="415" stroke="#16a34a" stroke-width="1.2" marker-end="url(#ag)"/>
  <path d="M 325 560 L 395 560 L 465 560 L 865 382" fill="none" stroke="#2563eb" stroke-width="1.5" marker-end="url(#ab)"/>
  <rect x="490" y="550" width="80" height="14" rx="3" fill="#ffffff" opacity="0.9"/>
  <text x="530" y="561" text-anchor="middle" fill="#2563eb" font-size="8">日志上报</text>
  <line x1="1020" y1="382" x2="1180" y2="467" stroke="#16a34a" stroke-width="1.2" marker-end="url(#ag)"/>
  <rect x="1060" y="410" width="80" height="14" rx="3" fill="#ffffff" opacity="0.9"/>
  <text x="1100" y="421" text-anchor="middle" fill="#15803d" font-size="8">原始 chunk</text>
  <line x1="1020" y1="415" x2="1180" y2="550" stroke="#16a34a" stroke-width="1.2" marker-end="url(#ag)"/>
  <rect x="1060" y="470" width="90" height="14" rx="3" fill="#ffffff" opacity="0.9"/>
  <text x="1105" y="481" text-anchor="middle" fill="#15803d" font-size="8">结构化事件</text>
  <path d="M 325 600 L 395 600 L 465 600 L 525 460" fill="none" stroke="#2563eb" stroke-width="1.5" marker-end="url(#ab)"/>
  <rect x="420" y="585" width="80" height="14" rx="3" fill="#ffffff" opacity="0.9"/>
  <text x="460" y="596" text-anchor="middle" fill="#2563eb" font-size="8">下载请求</text>
  <line x1="760" y1="460" x2="1100" y2="467" stroke="#16a34a" stroke-width="1.2" marker-end="url(#ag)"/>
  <rect x="900" y="450" width="100" height="14" rx="3" fill="#ffffff" opacity="0.9"/>
  <text x="950" y="461" text-anchor="middle" fill="#15803d" font-size="8">ticket + 重定向</text>
  <path d="M 325 630 L 395 630 L 775 460" fill="none" stroke="#2563eb" stroke-width="1.5" marker-end="url(#ab)"/>
  <rect x="500" y="615" width="90" height="14" rx="3" fill="#ffffff" opacity="0.9"/>
  <text x="545" y="626" text-anchor="middle" fill="#2563eb" font-size="8">申请短期 token</text>
  <path d="M 1020 460 Q 1100 460 1180 225" fill="none" stroke="#9333ea" stroke-width="1.2" stroke-dasharray="4,2" marker-end="url(#ap)"/>
  <rect x="1070" y="320" width="80" height="14" rx="3" fill="#ffffff" opacity="0.9"/>
  <text x="1110" y="331" text-anchor="middle" fill="#9333ea" font-size="8">AI HUB token</text>
  <path d="M 1020 480 Q 1150 480 1290 167" fill="none" stroke="#9333ea" stroke-width="1.2" stroke-dasharray="4,2" marker-end="url(#ap)"/>
  <rect x="1130" y="290" width="90" height="14" rx="3" fill="#ffffff" opacity="0.9"/>
  <text x="1175" y="301" text-anchor="middle" fill="#9333ea" font-size="8">GitLab push token</text>
  <path d="M 1110 135 Q 900 135 680 350" fill="none" stroke="#6b7280" stroke-width="1.2" stroke-dasharray="4,2" marker-end="url(#agray)"/>
  <rect x="840" y="200" width="60" height="14" rx="3" fill="#ffffff" opacity="0.9"/>
  <text x="870" y="211" text-anchor="middle" fill="#6b7280" font-size="8">身份认证</text>
  <path d="M 1110 150 Q 950 150 772 350" fill="none" stroke="#6b7280" stroke-width="1.2" stroke-dasharray="4,2" marker-end="url(#agray)"/>
  <path d="M 695 415 Q 550 415 465 520 L 395 520 L 325 520" fill="none" stroke="#2563eb" stroke-width="1.2" stroke-dasharray="3,2" marker-end="url(#ab)"/>
  <rect x="480" y="420" width="80" height="14" rx="3" fill="#ffffff" opacity="0.9"/>
  <text x="520" y="431" text-anchor="middle" fill="#2563eb" font-size="8">返回目标态</text>
  <!-- Design Principles -->
  <rect x="40" y="730" width="1420" height="180" rx="10" fill="#fafaf9" stroke="#d6d3d1" stroke-width="1"/>
  <text x="60" y="755" fill="#44403c" font-size="13" font-weight="600">关键设计约束与流程说明</text>
  <rect x="60" y="775" width="8" height="16" rx="2" fill="#2563eb"/>
  <text x="75" y="787" fill="#1c1917" font-size="10" font-weight="600">① 目标态版本化</text>
  <text x="180" y="787" fill="#57534e" font-size="10">Admin API 写入 PostgreSQL 形成版本化目标态，Control API 按版本号分发 diff 或 snapshot。离线节点下次启动时自动补偿拉取。</text>
  <rect x="60" y="801" width="8" height="16" rx="2" fill="#9333ea"/>
  <text x="75" y="813" fill="#1c1917" font-size="10" font-weight="600">② 审批前置</text>
  <text x="180" y="813" fill="#57534e" font-size="10">敏感操作（AI HUB 配额调整、GitLab 短期 token 签发、Skills/MCP 发布）先由 Approval Integration 调用飞书审批或客户审批中心，审批通过后才写入目标态。审批通过前不生效。</text>
  <rect x="60" y="827" width="8" height="16" rx="2" fill="#16a34a"/>
  <text x="75" y="839" fill="#1c1917" font-size="10" font-weight="600">③ 端侧不消费 MQ</text>
  <text x="180" y="839" fill="#57534e" font-size="10">lingxicli 通过心跳轮询 Control API 拉取目标态。消息可以过期，目标态不能丢失。大文件下载先向 Artifact Gateway 申请短期 ticket，直接从对象存储/制品库下载，不经过 Control API。</text>
  <rect x="60" y="853" width="8" height="16" rx="2" fill="#dc2626"/>
  <text x="75" y="865" fill="#1c1917" font-size="10" font-weight="600">④ 安全与审计</text>
  <text x="180" y="865" fill="#57534e" font-size="10">敏感 token 通过 Credential Ticket API 按需短期签发，不入日志、不入持久化存储。原始日志 chunk 写对象存储，结构化事件写审计存储，支持合规追溯。</text>
  <rect x="60" y="879" width="8" height="16" rx="2" fill="#0891b2"/>
  <text x="75" y="891" fill="#1c1917" font-size="10" font-weight="600">⑤ 端侧自治执行</text>
  <text x="180" y="891" fill="#57534e" font-size="10">lingxicli 拉取目标态后本地执行：lingxiupdater 负责升级，lingxidoctor 负责诊断，Qoder CLI / Claude Code 执行具体任务，完成后上报 ack。</text>
  <rect x="40" y="930" width="1420" height="60" rx="8" fill="#f9fafb" stroke="#e5e7eb" stroke-width="1"/>
  <text x="60" y="950" fill="#111827" font-size="11" font-weight="600">图例</text>
  <line x1="110" y1="946" x2="140" y2="946" stroke="#2563eb" stroke-width="1.5" marker-end="url(#ab)"/>
  <text x="148" y="950" fill="#6b7280" font-size="10">请求/响应流（端↔云端）</text>
  <line x1="360" y1="946" x2="390" y2="946" stroke="#16a34a" stroke-width="1.5" marker-end="url(#ag)"/>
  <text x="398" y="950" fill="#6b7280" font-size="10">数据/存储读写</text>
  <line x1="590" y1="946" x2="620" y2="946" stroke="#ea580c" stroke-width="1.5" marker-end="url(#ao)"/>
  <text x="628" y="950" fill="#6b7280" font-size="10">控制/触发</text>
  <line x1="790" y1="946" x2="820" y2="946" stroke="#9333ea" stroke-width="1.5" stroke-dasharray="4,2" marker-end="url(#ap)"/>
  <text x="828" y="950" fill="#6b7280" font-size="10">审批/外部集成</text>
  <line x1="1020" y1="946" x2="1050" y2="946" stroke="#6b7280" stroke-width="1.5" stroke-dasharray="4,2" marker-end="url(#agray)"/>
  <text x="1058" y="950" fill="#6b7280" font-size="10">身份认证/鉴权</text>
  <text x="60" y="975" fill="#9ca3af" font-size="9"> lingxicli v1.x  |  Go 1.22+  |  PostgreSQL 15+  |  LangChain / LangGraph  |  企业级安全合规</text>

</svg>