<svg xmlns="http://www.w3.org/2000/svg" viewBox="0 0 960 720" width="960" height="720">
  <defs>
    <marker id="arrowA" markerWidth="10" markerHeight="7" refX="9" refY="3.5" orient="auto">
      <polygon points="0 0, 10 3.5, 0 7" fill="#7c3aed"/>
    </marker>
    <marker id="arrowB" markerWidth="10" markerHeight="7" refX="9" refY="3.5" orient="auto">
      <polygon points="0 0, 10 3.5, 0 7" fill="#10b981"/>
    </marker>
    <marker id="arrowC" markerWidth="10" markerHeight="7" refX="9" refY="3.5" orient="auto">
      <polygon points="0 0, 10 3.5, 0 7" fill="#2563eb"/>
    </marker>
    <marker id="arrowE" markerWidth="10" markerHeight="7" refX="9" refY="3.5" orient="auto">
      <polygon points="0 0, 10 3.5, 0 7" fill="#f97316"/>
    </marker>
    <marker id="arrowF" markerWidth="10" markerHeight="7" refX="9" refY="3.5" orient="auto">
      <polygon points="0 0, 10 3.5, 0 7" fill="#7c3aed"/>
    </marker>
    <marker id="arrowG" markerWidth="10" markerHeight="7" refX="9" refY="3.5" orient="auto">
      <polygon points="0 0, 10 3.5, 0 7" fill="#ef4444"/>
    </marker>
    <marker id="arrowH" markerWidth="10" markerHeight="7" refX="9" refY="3.5" orient="auto">
      <polygon points="0 0, 10 3.5, 0 7" fill="#6b7280"/>
    </marker>
    <filter id="shadowSoft" x="-20%" y="-20%" width="140%" height="160%">
      <feDropShadow dx="0" dy="3" stdDeviation="6" flood-color="#0f172a" flood-opacity="0.12"/>
    </filter>
    <filter id="shadowGlass" x="-20%" y="-20%" width="140%" height="160%">
      <feDropShadow dx="0" dy="10" stdDeviation="16" flood-color="#020617" flood-opacity="0.28"/>
    </filter>
    <style>
    text { font-family: 'Helvetica Neue', Helvetica, Arial, 'PingFang SC', 'Microsoft YaHei', 'Microsoft JhengHei', 'SimHei', sans-serif; }
    .title { font-size: 30px; font-weight: 700; fill: #111827; }
    .subtitle { font-size: 14px; font-weight: 500; fill: #6b7280; }
    .section { font-size: 13px; font-weight: 700; fill: #2563eb; letter-spacing: 1.4px; }
    .section-sub { font-size: 12px; font-weight: 500; fill: #94a3b8; }
    .node-title { font-size: 18px; font-weight: 700; fill: #111827; }
    .node-sub { font-size: 12px; font-weight: 500; fill: #6b7280; }
    .node-type { font-size: 12px; font-weight: 700; fill: #9ca3af; letter-spacing: 0.08em; }
    .arrow-label { font-size: 12px; font-weight: 600; fill: #6b7280; }
    .legend { font-size: 12px; font-weight: 500; fill: #6b7280; }
    .footnote { font-size: 12px; font-weight: 500; fill: #94a3b8; }
    </style>
  </defs>
  <rect width="960.0" height="720.0" fill="#ffffff"/>
  <text x="480.0" y="56" text-anchor="middle" class="title">组合 1：企业知识库 Agent</text>
  <text x="480.0" y="82" text-anchor="middle" class="subtitle">RAG + 状态机 + 类型安全</text>
  <rect x="40.0" y="80.0" width="880.0" height="620.0" rx="12.0" fill="none" stroke="#e5e7eb" stroke-width="1.4" stroke-dasharray="6 5"/>
  <path d="M 480.0,180.0 L 480.0,230.0" fill="none" stroke="#7c3aed" stroke-width="2.4" marker-end="url(#arrowA)"/>
  <path d="M 480.0,300.0 L 480.0,350.0" fill="none" stroke="#f97316" stroke-width="2.4" marker-end="url(#arrowE)"/>
  <path d="M 480.0,440.0 L 480.0,460.4 L 280.0,479.6 L 280.0,500.0" fill="none" stroke="#f97316" stroke-width="2.4" marker-end="url(#arrowE)"/>
  <path d="M 480.0,440.0 L 480.0,460.4 L 680.0,479.6 L 680.0,500.0" fill="none" stroke="#7c3aed" stroke-width="2.4" marker-end="url(#arrowA)"/>
  <rect x="300.0" y="110.0" width="360.0" height="70.0" rx="10.0" fill="#eff6ff" stroke="#bfdbfe" stroke-width="1.8" filter="url(#shadowSoft)"/>
  <text x="480.0" y="128.0" text-anchor="middle" class="node-type">前端层</text>
  <text x="480.0" y="151.0" text-anchor="middle" class="node-title">React + Vercel AI SDK</text>
  <text x="480.0" y="173.0" text-anchor="middle" class="node-sub">useChat, streamText, 消息状态管理</text>
  <rect x="300.0" y="230.0" width="360.0" height="70.0" rx="10.0" fill="#fff7ed" stroke="#fed7aa" stroke-width="1.8" filter="url(#shadowSoft)"/>
  <text x="480.0" y="248.0" text-anchor="middle" class="node-type">API 网关层</text>
  <text x="480.0" y="271.0" text-anchor="middle" class="node-title">FastAPI + PydanticAI</text>
  <text x="480.0" y="293.0" text-anchor="middle" class="node-sub">Agent[UserQuery, AgentResponse] 强类型校验</text>
  <rect x="300.0" y="350.0" width="360.0" height="90.0" rx="10.0" fill="#f0fdf4" stroke="#bbf7d0" stroke-width="1.8" filter="url(#shadowSoft)"/>
  <text x="480.0" y="368.0" text-anchor="middle" class="node-type">编排层</text>
  <text x="480.0" y="401.0" text-anchor="middle" class="node-title">LangGraph StateGraph</text>
  <text x="480.0" y="423.0" text-anchor="middle" class="node-sub">路由→检索→生成→审核→输出</text>
  <rect x="120.0" y="500.0" width="320.0" height="90.0" rx="10.0" fill="#faf5ff" stroke="#e9d5ff" stroke-width="1.8" filter="url(#shadowSoft)"/>
  <text x="280.0" y="518.0" text-anchor="middle" class="node-type">检索层</text>
  <text x="280.0" y="551.0" text-anchor="middle" class="node-title">LlamaIndex</text>
  <text x="280.0" y="573.0" text-anchor="middle" class="node-sub">VectorIndex / QueryEngine / Reranker / Source Nodes</text>
  <rect x="520.0" y="500.0" width="320.0" height="90.0" rx="10.0" fill="#f5f3ff" stroke="#ddd6fe" stroke-width="1.8" filter="url(#shadowSoft)"/>
  <text x="680.0" y="518.0" text-anchor="middle" class="node-type">工具层</text>
  <text x="680.0" y="551.0" text-anchor="middle" class="node-title">PydanticAI 工具层</text>
  <text x="680.0" y="573.0" text-anchor="middle" class="node-sub">Calculator / SQLQuery / APIClient 类型化调用</text>
  <rect x="420.0" y="191.0" width="84" height="20" rx="6" fill="#ffffff" opacity="0.94"/>
  <text x="462.0" y="205.0" text-anchor="middle" class="arrow-label">HTTP / SSE</text>
  <rect x="402.5" y="311.0" width="119" height="20" rx="6" fill="#ffffff" opacity="0.94"/>
  <text x="462.0" y="325.0" text-anchor="middle" class="arrow-label">Pydantic Schema</text>
  <rect x="359.0" y="440.0" width="42" height="20" rx="6" fill="#ffffff" opacity="0.94"/>
  <text x="380.0" y="454.0" text-anchor="middle" class="arrow-label">检索请求</text>
  <rect x="559.0" y="440.0" width="42" height="20" rx="6" fill="#ffffff" opacity="0.94"/>
  <text x="580.0" y="454.0" text-anchor="middle" class="arrow-label">工具调用</text>
</svg>