<svg xmlns="http://www.w3.org/2000/svg" viewBox="0 0 960 680" width="960" height="680">
  <defs>
    <marker id="arrowA" markerWidth="10" markerHeight="7" refX="9" refY="3.5" orient="auto">
      <polygon points="0 0, 10 3.5, 0 7" fill="#7c3aed"/>
    </marker>
    <marker id="arrowB" markerWidth="10" markerHeight="7" refX="9" refY="3.5" orient="auto">
      <polygon points="0 0, 10 3.5, 0 7" fill="#10b981"/>
    </marker>
    <marker id="arrowC" markerWidth="10" markerHeight="7" refX="9" refY="3.5" orient="auto">
      <polygon points="0 0, 10 3.5, 0 7" fill="#2563eb"/>
    </marker>
    <marker id="arrowE" markerWidth="10" markerHeight="7" refX="9" refY="3.5" orient="auto">
      <polygon points="0 0, 10 3.5, 0 7" fill="#f97316"/>
    </marker>
    <marker id="arrowF" markerWidth="10" markerHeight="7" refX="9" refY="3.5" orient="auto">
      <polygon points="0 0, 10 3.5, 0 7" fill="#7c3aed"/>
    </marker>
    <marker id="arrowG" markerWidth="10" markerHeight="7" refX="9" refY="3.5" orient="auto">
      <polygon points="0 0, 10 3.5, 0 7" fill="#ef4444"/>
    </marker>
    <marker id="arrowH" markerWidth="10" markerHeight="7" refX="9" refY="3.5" orient="auto">
      <polygon points="0 0, 10 3.5, 0 7" fill="#6b7280"/>
    </marker>
    <filter id="shadowSoft" x="-20%" y="-20%" width="140%" height="160%">
      <feDropShadow dx="0" dy="3" stdDeviation="6" flood-color="#0f172a" flood-opacity="0.12"/>
    </filter>
    <filter id="shadowGlass" x="-20%" y="-20%" width="140%" height="160%">
      <feDropShadow dx="0" dy="10" stdDeviation="16" flood-color="#020617" flood-opacity="0.28"/>
    </filter>
    <style>
    text { font-family: 'Helvetica Neue', Helvetica, Arial, 'PingFang SC', 'Microsoft YaHei', 'Microsoft JhengHei', 'SimHei', sans-serif; }
    .title { font-size: 30px; font-weight: 700; fill: #111827; }
    .subtitle { font-size: 14px; font-weight: 500; fill: #6b7280; }
    .section { font-size: 13px; font-weight: 700; fill: #2563eb; letter-spacing: 1.4px; }
    .section-sub { font-size: 12px; font-weight: 500; fill: #94a3b8; }
    .node-title { font-size: 18px; font-weight: 700; fill: #111827; }
    .node-sub { font-size: 12px; font-weight: 500; fill: #6b7280; }
    .node-type { font-size: 12px; font-weight: 700; fill: #9ca3af; letter-spacing: 0.08em; }
    .arrow-label { font-size: 12px; font-weight: 600; fill: #6b7280; }
    .legend { font-size: 12px; font-weight: 500; fill: #6b7280; }
    .footnote { font-size: 12px; font-weight: 500; fill: #94a3b8; }
    </style>
  </defs>
  <rect width="960.0" height="680.0" fill="#ffffff"/>
  <text x="480.0" y="56" text-anchor="middle" class="title">组合 2：智能数据分析平台</text>
  <text x="480.0" y="82" text-anchor="middle" class="subtitle">代码 Agent + 可视化前端</text>
  <rect x="40.0" y="80.0" width="880.0" height="560.0" rx="12.0" fill="none" stroke="#e5e7eb" stroke-width="1.4" stroke-dasharray="6 5"/>
  <path d="M 480.0,180.0 L 480.0,230.0" fill="none" stroke="#7c3aed" stroke-width="2.4" marker-end="url(#arrowA)"/>
  <path d="M 480.0,320.0 L 480.0,370.0" fill="none" stroke="#f97316" stroke-width="2.4" marker-end="url(#arrowE)"/>
  <path d="M 480.0,440.0 L 480.0,490.0" fill="none" stroke="#f97316" stroke-width="2.4" marker-end="url(#arrowE)"/>
  <rect x="300.0" y="110.0" width="360.0" height="70.0" rx="10.0" fill="#eff6ff" stroke="#bfdbfe" stroke-width="1.8" filter="url(#shadowSoft)"/>
  <text x="480.0" y="128.0" text-anchor="middle" class="node-type">前端层</text>
  <text x="480.0" y="151.0" text-anchor="middle" class="node-title">React + Vercel AI SDK</text>
  <text x="480.0" y="173.0" text-anchor="middle" class="node-sub">useChat + 自定义数据卡片/图表组件</text>
  <rect x="300.0" y="230.0" width="360.0" height="90.0" rx="10.0" fill="#f0fdf4" stroke="#bbf7d0" stroke-width="1.8" filter="url(#shadowSoft)"/>
  <text x="480.0" y="248.0" text-anchor="middle" class="node-type">编排层</text>
  <text x="480.0" y="281.0" text-anchor="middle" class="node-title">Smolagents (CodeAgent)</text>
  <text x="480.0" y="303.0" text-anchor="middle" class="node-sub">LLM 生成 Python 代码 / 沙箱执行 / Pandas+Matplotlib</text>
  <rect x="300.0" y="370.0" width="360.0" height="70.0" rx="10.0" fill="#fff7ed" stroke="#fed7aa" stroke-width="1.8" filter="url(#shadowSoft)"/>
  <text x="480.0" y="388.0" text-anchor="middle" class="node-type">数据层</text>
  <text x="480.0" y="411.0" text-anchor="middle" class="node-title">PydanticAI + SQLModel</text>
  <text x="480.0" y="433.0" text-anchor="middle" class="node-sub">自然语言 → Text2SQL → Pydantic 校验 → 只读查询</text>
  <ellipse cx="480.0" cy="500.0" rx="90.0" ry="10.0" fill="#f8fafc" stroke="#94a3b8" stroke-width="2.2"/>
  <rect x="300.0" y="500.0" width="360.0" height="60.0" fill="#f8fafc" stroke="#94a3b8" stroke-width="2.2"/>
  <ellipse cx="480.0" cy="560.0" rx="90.0" ry="10.0" fill="#f8fafc" stroke="#94a3b8" stroke-width="2.2"/>
  <ellipse cx="480.0" cy="520.4" rx="90.0" ry="10.0" fill="none" stroke="#94a3b8" stroke-opacity="0.45" stroke-width="1.2"/>
  <ellipse cx="480.0" cy="538.0" rx="90.0" ry="10.0" fill="none" stroke="#94a3b8" stroke-opacity="0.25" stroke-width="1.2"/>
  <text x="480.0" y="524.0" text-anchor="middle" class="node-title">内部数据仓库 / OLAP / ClickHouse</text>
  <rect x="444.0" y="191.0" width="36" height="20" rx="6" fill="#ffffff" opacity="0.94"/>
  <text x="462.0" y="205.0" text-anchor="middle" class="arrow-label">查询</text>
  <rect x="427.0" y="331.0" width="70" height="20" rx="6" fill="#ffffff" opacity="0.94"/>
  <text x="462.0" y="345.0" text-anchor="middle" class="arrow-label">Text2SQL</text>
  <rect x="434.0" y="451.0" width="56" height="20" rx="6" fill="#ffffff" opacity="0.94"/>
  <text x="462.0" y="465.0" text-anchor="middle" class="arrow-label">SQL 执行</text>
</svg>