<svg xmlns="http://www.w3.org/2000/svg" viewBox="0 0 960 640" width="960" height="640">
  <defs>
    <marker id="arrowA" markerWidth="10" markerHeight="7" refX="9" refY="3.5" orient="auto">
      <polygon points="0 0, 10 3.5, 0 7" fill="#7c3aed"/>
    </marker>
    <marker id="arrowB" markerWidth="10" markerHeight="7" refX="9" refY="3.5" orient="auto">
      <polygon points="0 0, 10 3.5, 0 7" fill="#10b981"/>
    </marker>
    <marker id="arrowC" markerWidth="10" markerHeight="7" refX="9" refY="3.5" orient="auto">
      <polygon points="0 0, 10 3.5, 0 7" fill="#2563eb"/>
    </marker>
    <marker id="arrowE" markerWidth="10" markerHeight="7" refX="9" refY="3.5" orient="auto">
      <polygon points="0 0, 10 3.5, 0 7" fill="#f97316"/>
    </marker>
    <marker id="arrowF" markerWidth="10" markerHeight="7" refX="9" refY="3.5" orient="auto">
      <polygon points="0 0, 10 3.5, 0 7" fill="#7c3aed"/>
    </marker>
    <marker id="arrowG" markerWidth="10" markerHeight="7" refX="9" refY="3.5" orient="auto">
      <polygon points="0 0, 10 3.5, 0 7" fill="#ef4444"/>
    </marker>
    <marker id="arrowH" markerWidth="10" markerHeight="7" refX="9" refY="3.5" orient="auto">
      <polygon points="0 0, 10 3.5, 0 7" fill="#6b7280"/>
    </marker>
    <filter id="shadowSoft" x="-20%" y="-20%" width="140%" height="160%">
      <feDropShadow dx="0" dy="3" stdDeviation="6" flood-color="#0f172a" flood-opacity="0.12"/>
    </filter>
    <filter id="shadowGlass" x="-20%" y="-20%" width="140%" height="160%">
      <feDropShadow dx="0" dy="10" stdDeviation="16" flood-color="#020617" flood-opacity="0.28"/>
    </filter>
    <style>
    text { font-family: 'Helvetica Neue', Helvetica, Arial, 'PingFang SC', 'Microsoft YaHei', 'Microsoft JhengHei', 'SimHei', sans-serif; }
    .title { font-size: 30px; font-weight: 700; fill: #111827; }
    .subtitle { font-size: 14px; font-weight: 500; fill: #6b7280; }
    .section { font-size: 13px; font-weight: 700; fill: #2563eb; letter-spacing: 1.4px; }
    .section-sub { font-size: 12px; font-weight: 500; fill: #94a3b8; }
    .node-title { font-size: 18px; font-weight: 700; fill: #111827; }
    .node-sub { font-size: 12px; font-weight: 500; fill: #6b7280; }
    .node-type { font-size: 12px; font-weight: 700; fill: #9ca3af; letter-spacing: 0.08em; }
    .arrow-label { font-size: 12px; font-weight: 600; fill: #6b7280; }
    .legend { font-size: 12px; font-weight: 500; fill: #6b7280; }
    .footnote { font-size: 12px; font-weight: 500; fill: #94a3b8; }
    </style>
  </defs>
  <rect width="960.0" height="640.0" fill="#ffffff"/>
  <text x="480.0" y="56" text-anchor="middle" class="title">组合 3：多角色协作内容工厂</text>
  <text x="480.0" y="82" text-anchor="middle" class="subtitle">多 Agent 团队 + 任务队列</text>
  <rect x="40.0" y="80.0" width="880.0" height="520.0" rx="12.0" fill="none" stroke="#e5e7eb" stroke-width="1.4" stroke-dasharray="6 5"/>
  <path d="M 480.0,170.0 L 480.0,190.4 L 230.0,209.6 L 230.0,230.0" fill="none" stroke="#7c3aed" stroke-width="2.4" marker-end="url(#arrowA)"/>
  <path d="M 480.0,170.0 L 480.0,230.0" fill="none" stroke="#7c3aed" stroke-width="2.4" marker-end="url(#arrowA)"/>
  <path d="M 480.0,170.0 L 480.0,190.4 L 730.0,209.6 L 730.0,230.0" fill="none" stroke="#7c3aed" stroke-width="2.4" marker-end="url(#arrowA)"/>
  <path d="M 230.0,310.0 L 230.0,330.4 L 480.0,359.6 L 480.0,380.0" fill="none" stroke="#f97316" stroke-width="2.4" marker-end="url(#arrowE)"/>
  <path d="M 480.0,310.0 L 480.0,380.0" fill="none" stroke="#f97316" stroke-width="2.4" marker-end="url(#arrowE)"/>
  <path d="M 730.0,310.0 L 730.0,330.4 L 480.0,359.6 L 480.0,380.0" fill="none" stroke="#f97316" stroke-width="2.4" marker-end="url(#arrowE)"/>
  <rect x="300.0" y="110.0" width="360.0" height="60.0" rx="10.0" fill="#f0fdf4" stroke="#bbf7d0" stroke-width="1.8" filter="url(#shadowSoft)"/>
  <text x="480.0" y="128.0" text-anchor="middle" class="node-type">管理层</text>
  <text x="480.0" y="146.0" text-anchor="middle" class="node-title">CrewAI Coordinator</text>
  <text x="480.0" y="168.0" text-anchor="middle" class="node-sub">分配任务给各角色 Agent</text>
  <rect x="120.0" y="230.0" width="220.0" height="80.0" rx="10.0" fill="#eff6ff" stroke="#bfdbfe" stroke-width="1.8" filter="url(#shadowSoft)"/>
  <text x="230.0" y="248.0" text-anchor="middle" class="node-type">角色</text>
  <text x="230.0" y="276.0" text-anchor="middle" class="node-title">研究员 Agent</text>
  <text x="230.0" y="298.0" text-anchor="middle" class="node-sub">LlamaIndex RAG 检索</text>
  <rect x="370.0" y="230.0" width="220.0" height="80.0" rx="10.0" fill="#fff7ed" stroke="#fed7aa" stroke-width="1.8" filter="url(#shadowSoft)"/>
  <text x="480.0" y="248.0" text-anchor="middle" class="node-type">角色</text>
  <text x="480.0" y="276.0" text-anchor="middle" class="node-title">撰稿 Agent</text>
  <text x="480.0" y="298.0" text-anchor="middle" class="node-sub">PydanticAI 结构化输出</text>
  <rect x="620.0" y="230.0" width="220.0" height="80.0" rx="10.0" fill="#fef2f2" stroke="#fecaca" stroke-width="1.8" filter="url(#shadowSoft)"/>
  <text x="730.0" y="248.0" text-anchor="middle" class="node-type">角色</text>
  <text x="730.0" y="276.0" text-anchor="middle" class="node-title">审核 Agent</text>
  <text x="730.0" y="298.0" text-anchor="middle" class="node-sub">PydanticAI 规则校验</text>
  <rect x="300.0" y="380.0" width="360.0" height="70.0" rx="10.0" fill="#faf5ff" stroke="#e9d5ff" stroke-width="1.8" filter="url(#shadowSoft)"/>
  <text x="480.0" y="398.0" text-anchor="middle" class="node-type">输出层</text>
  <text x="480.0" y="421.0" text-anchor="middle" class="node-title">Dify / 内部 CMS</text>
  <text x="480.0" y="443.0" text-anchor="middle" class="node-sub">Workflow 接入人工审核节点 → 发布</text>
  <rect x="337.0" y="170.0" width="36" height="20" rx="6" fill="#ffffff" opacity="0.94"/>
  <text x="355.0" y="184.0" text-anchor="middle" class="arrow-label">任务</text>
  <rect x="444.0" y="186.0" width="36" height="20" rx="6" fill="#ffffff" opacity="0.94"/>
  <text x="462.0" y="200.0" text-anchor="middle" class="arrow-label">任务</text>
  <rect x="587.0" y="170.0" width="36" height="20" rx="6" fill="#ffffff" opacity="0.94"/>
  <text x="605.0" y="184.0" text-anchor="middle" class="arrow-label">任务</text>
</svg>