<svg xmlns="http://www.w3.org/2000/svg" viewBox="0 0 960 580" width="960" height="580">
  <defs>
    <marker id="arrowA" markerWidth="10" markerHeight="7" refX="9" refY="3.5" orient="auto">
      <polygon points="0 0, 10 3.5, 0 7" fill="#7c3aed"/>
    </marker>
    <marker id="arrowB" markerWidth="10" markerHeight="7" refX="9" refY="3.5" orient="auto">
      <polygon points="0 0, 10 3.5, 0 7" fill="#10b981"/>
    </marker>
    <marker id="arrowC" markerWidth="10" markerHeight="7" refX="9" refY="3.5" orient="auto">
      <polygon points="0 0, 10 3.5, 0 7" fill="#2563eb"/>
    </marker>
    <marker id="arrowE" markerWidth="10" markerHeight="7" refX="9" refY="3.5" orient="auto">
      <polygon points="0 0, 10 3.5, 0 7" fill="#f97316"/>
    </marker>
    <marker id="arrowF" markerWidth="10" markerHeight="7" refX="9" refY="3.5" orient="auto">
      <polygon points="0 0, 10 3.5, 0 7" fill="#7c3aed"/>
    </marker>
    <marker id="arrowG" markerWidth="10" markerHeight="7" refX="9" refY="3.5" orient="auto">
      <polygon points="0 0, 10 3.5, 0 7" fill="#ef4444"/>
    </marker>
    <marker id="arrowH" markerWidth="10" markerHeight="7" refX="9" refY="3.5" orient="auto">
      <polygon points="0 0, 10 3.5, 0 7" fill="#6b7280"/>
    </marker>
    <filter id="shadowSoft" x="-20%" y="-20%" width="140%" height="160%">
      <feDropShadow dx="0" dy="3" stdDeviation="6" flood-color="#0f172a" flood-opacity="0.12"/>
    </filter>
    <filter id="shadowGlass" x="-20%" y="-20%" width="140%" height="160%">
      <feDropShadow dx="0" dy="10" stdDeviation="16" flood-color="#020617" flood-opacity="0.28"/>
    </filter>
    <style>
    text { font-family: 'Helvetica Neue', Helvetica, Arial, 'PingFang SC', 'Microsoft YaHei', 'Microsoft JhengHei', 'SimHei', sans-serif; }
    .title { font-size: 30px; font-weight: 700; fill: #111827; }
    .subtitle { font-size: 14px; font-weight: 500; fill: #6b7280; }
    .section { font-size: 13px; font-weight: 700; fill: #2563eb; letter-spacing: 1.4px; }
    .section-sub { font-size: 12px; font-weight: 500; fill: #94a3b8; }
    .node-title { font-size: 18px; font-weight: 700; fill: #111827; }
    .node-sub { font-size: 12px; font-weight: 500; fill: #6b7280; }
    .node-type { font-size: 12px; font-weight: 700; fill: #9ca3af; letter-spacing: 0.08em; }
    .arrow-label { font-size: 12px; font-weight: 600; fill: #6b7280; }
    .legend { font-size: 12px; font-weight: 500; fill: #6b7280; }
    .footnote { font-size: 12px; font-weight: 500; fill: #94a3b8; }
    </style>
  </defs>
  <rect width="960.0" height="580.0" fill="#ffffff"/>
  <text x="480.0" y="56" text-anchor="middle" class="title">组合 5：低代码原型 → 工程化迁移</text>
  <text x="480.0" y="82" text-anchor="middle" class="subtitle">双轨策略</text>
  <rect x="40.0" y="90.0" width="880.0" height="200.0" rx="12.0" fill="#eff6ff" stroke="#dbeafe" stroke-width="1.4" stroke-dasharray="6 5"/>
  <text x="58.0" y="114.0" class="section">阶段一（0-2周）：DIFY 快速验证</text>
  <rect x="40.0" y="340.0" width="880.0" height="200.0" rx="12.0" fill="#f0fdf4" stroke="#dcfce7" stroke-width="1.4" stroke-dasharray="6 5"/>
  <text x="58.0" y="364.0" class="section">阶段二（2-6周）：LANGGRAPH + PYDANTICAI 工程化重构</text>
  <path d="M 280.0,175.0 L 320.0,175.0" fill="none" stroke="#7c3aed" stroke-width="2.4" marker-end="url(#arrowA)"/>
  <path d="M 500.0,175.0 L 540.0,175.0" fill="none" stroke="#7c3aed" stroke-width="2.4" marker-end="url(#arrowA)"/>
  <path d="M 720.0,175.0 L 760.0,175.0" fill="none" stroke="#7c3aed" stroke-width="2.4" marker-end="url(#arrowA)"/>
  <path d="M 480.0,290.0 L 480.0,340.0" fill="none" stroke="#f97316" stroke-width="2.4" marker-end="url(#arrowE)"/>
  <path d="M 300.0,425.0 L 340.0,425.0" fill="none" stroke="#7c3aed" stroke-width="2.4" marker-end="url(#arrowA)"/>
  <path d="M 540.0,425.0 L 580.0,425.0" fill="none" stroke="#7c3aed" stroke-width="2.4" marker-end="url(#arrowA)"/>
  <rect x="100.0" y="150.0" width="180.0" height="50.0" rx="10.0" fill="#ffffff" stroke="#bfdbfe" stroke-width="1.8"/>
  <text x="190.0" y="175.0" text-anchor="middle" class="node-title">拖拽搭建 Workflow</text>
  <rect x="320.0" y="150.0" width="180.0" height="50.0" rx="10.0" fill="#ffffff" stroke="#bfdbfe" stroke-width="1.8"/>
  <text x="410.0" y="175.0" text-anchor="middle" class="node-title">验证 Prompt / RAG</text>
  <rect x="540.0" y="150.0" width="180.0" height="50.0" rx="10.0" fill="#ffffff" stroke="#bfdbfe" stroke-width="1.8"/>
  <text x="630.0" y="175.0" text-anchor="middle" class="node-title">收集真实用户 query</text>
  <rect x="760.0" y="150.0" width="140.0" height="50.0" rx="10.0" fill="#ffffff" stroke="#bfdbfe" stroke-width="1.8"/>
  <text x="830.0" y="175.0" text-anchor="middle" class="node-title">A/B 测试</text>
  <rect x="100.0" y="400.0" width="200.0" height="50.0" rx="10.0" fill="#ffffff" stroke="#bbf7d0" stroke-width="1.8"/>
  <text x="200.0" y="425.0" text-anchor="middle" class="node-title">Workflow → StateGraph</text>
  <rect x="340.0" y="400.0" width="200.0" height="50.0" rx="10.0" fill="#ffffff" stroke="#bbf7d0" stroke-width="1.8"/>
  <text x="440.0" y="425.0" text-anchor="middle" class="node-title">动态 Prompt → 强类型化</text>
  <rect x="580.0" y="400.0" width="200.0" height="50.0" rx="10.0" fill="#ffffff" stroke="#bbf7d0" stroke-width="1.8"/>
  <text x="680.0" y="425.0" text-anchor="middle" class="node-title">CI/CD + 单元测试 + A/B</text>
  <rect x="430.5" y="301.0" width="63" height="20" rx="6" fill="#ffffff" opacity="0.94"/>
  <text x="462.0" y="315.0" text-anchor="middle" class="arrow-label">导出配置与数据</text>
</svg>